/* XPM */
static char *result[] = {
/* columns rows colors chars-per-pixel */
"64 64 8 1 ",
"  c #212D00",
". c #384D00",
"X c #516D00",
"o c #AADB1E",
"O c #C1EC48",
"+ c #F3EAA1",
"@ c #F9F5D2",
"# c None",
/* pixels */
"################################################################",
"################################################################",
"################################################################",
"################################################################",
"################################################################",
"################################################################",
"################################################################",
"################################################################",
"################################################################",
"################################################################",
"################################################################",
"################################################################",
"################################################################",
"################################################################",
"################################################################",
"################################################################",
"################################################################",
"################################################################",
"################################################################",
"################################################################",
"################################################################",
"################################################################",
"################################################################",
"################################################################",
"################################################################",
"################################################################",
"############################XX....##############################",
"############################XX....##############################",
"##########################..@@OOOO..############################",
"##########################..@@OOOO..############################",
"########################..OOOO@@OOOO..##########################",
"########################..OOOO@@OOOO..##########################",
"########################XX@@OOOO@@@@XX##########################",
"########################XX@@OOOO@@@@XX##########################",
"########################..OO@@OOoooo  ##########################",
"########################..OO@@OOoooo  ##########################",
"##########################..++oooo  ############################",
"##########################..++oooo  ############################",
"############################XX    ##############################",
"############################XX    ##############################",
"################################################################",
"################################################################",
"################################################################",
"################################################################",
"################################################################",
"################################################################",
"################################################################",
"################################################################",
"################################################################",
"################################################################",
"################################################################",
"################################################################",
"################################################################",
"################################################################",
"################################################################",
"################################################################",
"################################################################",
"################################################################",
"################################################################",
"################################################################",
"################################################################",
"################################################################",
"################################################################",
"################################################################"
};
