/* XPM */
static char *de4d122853204e16c3af9e739a2b38fcmd5fPNY6geeIHage[] = {
/* columns rows colors chars-per-pixel */
"64 64 8 1 ",
"  c None",
". c gray3",
"X c #2D3741",
"o c #545F69",
"O c #C1EC48",
"+ c #B5BCC2",
"@ c #F9F5D2",
"# c #FAFDFF",
/* pixels */
"                                                                ",
"                                                                ",
"                                                                ",
"                                                                ",
"                                                                ",
"                                                                ",
"                                                                ",
"                                                                ",
"                                                                ",
"                                                                ",
"                                                                ",
"                                                                ",
"                                                                ",
"                                                                ",
"                                                                ",
"                                                                ",
"                                                                ",
"                                                                ",
"                                                                ",
"                                                                ",
"                                                                ",
"                                                                ",
"                                                                ",
"                                                                ",
"                                                                ",
"                                                                ",
"                                                                ",
"                                                                ",
"                                                                ",
"                          ++++++        ++++++                  ",
"                          ++++++        ++++++                  ",
"                          ++oooo++    ++oooo++                  ",
"                          ++oooo++    ++oooo++                  ",
"                          ++oooooo++++++oooo++                  ",
"                          ++oooooo++++++oooo++                  ",
"                            ++oooooooooooo++                    ",
"                            ++oooooooooooo++                    ",
"                              ++oooooooooooo++                  ",
"                              ++oooooooooooo++                  ",
"                              ++oo##oooooooo##++                ",
"                              ++oo##oooooooo##++                ",
"                ++++    ++++++++oo..oooo@@OO..++                ",
"                ++++    ++++++++oo..oooo@@OO..++                ",
"                ++XX++++ooooooXXooooooOOOO@@OO                  ",
"                ++XX++++ooooooXXooooooOOOO@@OO                  ",
"                  ++XXooooooooooXXXXXXOOOO@@OO                  ",
"                  ++XXooooooooooXXXXXXOOOO@@OO                  ",
"                    ++ooooooooooooooXXXXOO@@                    ",
"                    ++ooooooooooooooXXXXOO@@                    ",
"                    ++oooooooooooooooo++                        ",
"                    ++oooooooooooooooo++                        ",
"                    ++oo++XX++++oo++oo++                        ",
"                    ++oo++XX++++oo++oo++                        ",
"                    ++oo++XX++++oo++oo++                        ",
"                    ++oo++XX++++oo++oo++                        ",
"                      ++++++    ++++++                          ",
"                      ++++++    ++++++                          ",
"                                                                ",
"                                                                ",
"                                                                ",
"                                                                ",
"                                                                ",
"                                                                ",
"                                                                "
};
