/* XPM */
static char *c7057514b43642e28f18818d9b8a6627XizOp9XDNxJiAAnh[] = {
/* columns rows colors chars-per-pixel */
"64 64 8 1 ",
"  c None",
". c gray3",
"X c #2D3741",
"o c #545F69",
"O c #FF2674",
"+ c #B5BCC2",
"@ c #E7B8C9",
"# c #FAFDFF",
/* pixels */
"                                                                ",
"                                                                ",
"                                                                ",
"                                                                ",
"                                                                ",
"                                                                ",
"                                                                ",
"                                                                ",
"                                                                ",
"                                                                ",
"                                                                ",
"                                                                ",
"                                                                ",
"                                                                ",
"                                                                ",
"                                                                ",
"                                                                ",
"                                                                ",
"                                                                ",
"                                                                ",
"                                                                ",
"                                                                ",
"                                                                ",
"                                                                ",
"                                                                ",
"                                                                ",
"                                                                ",
"                                                                ",
"                                                                ",
"                          ++++++        ++++++                  ",
"                          ++++++        ++++++                  ",
"                          ++oooo++    ++oooo++                  ",
"                          ++oooo++    ++oooo++                  ",
"                          ++oooooo++++++oooo++                  ",
"                          ++oooooo++++++oooo++                  ",
"                            ++oooooooooooo++                    ",
"                            ++oooooooooooo++                    ",
"                              ++oooooooooooo++                  ",
"                              ++oooooooooooo++                  ",
"                              ++oo##oooooooo##++                ",
"                              ++oo##oooooooo##++                ",
"                ++++    ++++++++oo..oooo..oo..++                ",
"                ++++    ++++++++oo..oooo..oo..++                ",
"                ++XX++++ooooooXXoooooo......++                  ",
"                ++XX++++ooooooXXoooooo......++                  ",
"                  ++XXooooooooooXXXXXXXXOO@@                    ",
"                  ++XXooooooooooXXXXXXXXOO@@                    ",
"                    ++ooooooooooooooXXXX@@                      ",
"                    ++ooooooooooooooXXXX@@                      ",
"                    ++oooooooooooooooo++                        ",
"                    ++oooooooooooooooo++                        ",
"                    ++oo++XX++++oo++oo++                        ",
"                    ++oo++XX++++oo++oo++                        ",
"                    ++oo++XX++++oo++oo++                        ",
"                    ++oo++XX++++oo++oo++                        ",
"                      ++++++    ++++++                          ",
"                      ++++++    ++++++                          ",
"                                                                ",
"                                                                ",
"                                                                ",
"                                                                ",
"                                                                ",
"                                                                ",
"                                                                "
};
