/* XPM */
static char *result[] = {
/* columns rows colors chars-per-pixel */
"64 64 19 1 ",
"  c #060329",
". c #1C2833",
"X c #44050B",
"o c #521E23",
"O c #6D2A41",
"+ c #145041",
"@ c #832121",
"# c #CE3B26",
"$ c #8F4349",
"% c #B16E45",
"& c #5CAC48",
"* c #F7872A",
"= c #8CCE6C",
"- c #C1EC48",
"; c #FCD56B",
": c #FFA686",
"> c #FDCEAB",
", c #F9F5D2",
"< c None",
/* pixels */
"<<<<<<<<<<<<<<<<<<<<   <<<<<<<<<<<<<<<<<<<<<<<<<<<<<<<<<<<<<<<<<",
"<<<<<<<<<<<<<<<<<<<<   <<<<<<<<<<<<<<<<<<<<<<<<<<<<<<<<<<<<<<<<<",
"<<<<<<<<<<<<<<<<<<<<  +  <<<<<<<<<<<<<<<<<<<<<<<<<<<<<<<<<<<<<<<",
"<<<<<<<<<<<<<<<<<<<<<<           <<<<<<<<<+++<<<<<<<<<<<<<<<<<<<",
"<<<<<<<<<<<<<<<<<<<<<<           <<<<<<<<<+++<<<<<<<<<<<<<<<<<<<",
"<<<<<<<<<<<<<<<<<<<<<< .....+++++ <<++++++==+<<<<<<<<<<<<<<<<<<<",
"<<<<<<<<<<<<<<<<<<<<  ........++++  ,--==&++<<<<<<<<<<<<<<<<<<<<",
"<<<<<<<<<<<<<<<<<<<<  ........++++  ,--==&++<<<<<<<<<<<<<<<<<<<<",
"<<<<<<<<<<<<<<<<<<<<  ...--=......--=&&&&=++<<<<<<<<<<<<<<<<<<<<",
"<<<<<<<<<<<<<<<<<<<   ,--==&&&...&==&=====++<<<<<<<<<<<<<<<<<<<<",
"<<<<<<<<<<<<<<<<<<<   ,--==&&&...&==&=====++<<<<<<<<<<<<<<<<<<<<",
"<<<<<<<<<<<<<<<<<<<+===&&&&===&&&=&&======++<<<<<<<<<<<<<<<<<<<<",
"<<<<<<<<<<<<<<<<<<<+==&&&&&&&&&&&&&&&&&&&+<<<<<<<<<<<<<<<<<<<<<<",
"<<<<<<<<<<<<<<<<<<<+==&&&&&&&&&&&&&&&&&&&+<<<<<<<<<<<<<<<<<<<<<<",
"<<<<<<<<<<<<<<<<<++=&&&&&..............  <<<<<<<<<<<<<<<<<<<<<<<",
"<<<<<<<<<<<<<<<<<++=&&&&&..............  <<<<<<<<<<<<<<<<<<<<<<<",
"<<<<<<<<<<<<<<<<+==+   ..+++......+++++++ <<<<<<<<<<<<<<<<<<<<<<",
"<<<<<<<<<<<<<<<<+++ ++++++++++...+++++++++  <<<<<<<<<<<<<<<<<<<<",
"<<<<<<<<<<<<<<<<+++ ++++++++++...+++++++++  <<<<<<<<<<<<<<<<<<<<",
"<<<<<<<<<<<<<<<<<<< +++++++++++..+++++++++  <<<<<<<<<<<<<<<<<<<<",
"<<<<<<<<<<<<<<<<<  ++++++.....+..+.....+++++ <<<<<<<<<<<<<<<<<<<",
"<<<<<<<<<<<<<<<<<  ++++++.....+..+.....+++++ <<<<<<<<<<<<<<<<<<<",
"<<<<<<<<<<<<<<<<<  +++.........++........+++ <<<<<<<<<<<<<<<<<<<",
"<<<<<<<<<<<<<<<<X..+........+++...&&......++.XX<<<<<<<<<<<<<<<<<",
"<<<<<<<<<<<<<<<<X..+........+++...&&......++.XX<<<<<<<<<<<<<<<<<",
"<<<<<<<<<<<<<<XXO  ......+++--&+++++-.....   OOX<<<<<<<<<<<<<<<<",
"<<<<<<<<<<<<<<XXO  ......+++--&+++++-.....   OOX<<<<<<<<<<<<<<<<",
"<<<<<<<<<<<<<<XXO...+++++..-&&&++.&&&++......  X<<<<<<<<<<<<<<<<",
"<<<<<<<<<<<<XXOO.+++++-&&::&&&:..+&&&..++.--+..OXX<<<<<<<<<<<<<<",
"<<<<<<<<<<<<XXOO.+++++-&&::&&&:..+&&&..++.--+..OXX<<<<<<<<<<<<<<",
"<<<<<<<<<<<<XX..+...&&&::&&:::::::&&:::::&&&.OOOXX<<<<<<<<<<<<<<",
"<<<<<<<<<<<<XX.....+&&:>>>>>>>>>>>::&::::&&&.OOOXX<<<<<<<<<<<<<<",
"<<<<<<<<<<<<XX.....+&&:>>>>>>>>>>>::&::::&&&.OOOXX<<<<<<<<<<<<<<",
"<<<<<<<<<<<<XXOOOOO.::&..  >>>>>>>>>.  &&:..OOOOXX<<<<<<<<<<<<<<",
"<<<<<<<<<<<<OO$$$$$.::>    >::>::>::   >>:..$$$$OO<<<<<<<<<<<<<<",
"<<<<<<<<<<<<OO$$$$$.::>    >::>::>::   >>:..$$$$OO<<<<<<<<<<<<<<",
"<<<<<<<<<<<<OO$$$$$%%%:::>>:>>:>>:>>:>>::%%%$$$$OO<<<<<<<<<<<<<<",
"<<<<<<<<<<<<OO$$$::;;;%>>>>>>>>>>>>>>>>%%;;;:$$$OO<<<<<<<<<<<<<<",
"<<<<<<<<<<<<OO$$$::;;;%>>>>>>>>>>>>>>>>%%;;;:$$$OO<<<<<<<<<<<<<<",
"<<<<<<<<<<<<<<oo%::;;;;%%@@@@@@@@@@@@%%;;;;;:%%o<<<<<<<<<<<<<<<<",
"<<<<<<<<<<<<<<oo%::;;;;%%@@@@@@@@@@@@%%;;;;;:%%o<<<<<<<<<<<<<<<<",
"<<<<<<<<<<<<<<oo%::%;;;%%############%%;;;%%:%%o<<<<<<<<<<<<<<<<",
"<<<<<<<<<<<<<<$$:%%o%%%oo*****#######oo%%%oo%::$<<<<<<<<<<<<<<<<",
"<<<<<<<<<<<<<<$$:%%o%%%oo*****#######oo%%%oo%::$<<<<<<<<<<<<<<<<",
"<<<<<<<<<$$$$$$$>ooo%%%oo************oo%%%ooo>>$$$$$$<<<<<<<<<<<",
"<<<<<<<<<$$,>>>>$<<o%%%oo***;;***;***oo%%%oo<$$,>>>>$<<<<<<<<<<<",
"<<<<<<<<<$$,>>>>$<<o%%%oo***;;***;***oo%%%oo<$$,>>>>$<<<<<<<<<<<",
"<<<<<<<<<$$$$$>>$<<@ooo*******;;;******ooo@@<$$>$$$$$<<<<<<<<<<<",
"<<<<<<<<<<<<<<$$$<<@##********;;;********#@@<$$$<<<<<<<<<<<<<<<<",
"<<<<<<<<<<<<<<$$$<<@##********;;;********#@@<$$$<<<<<<<<<<<<<<<<",
"<<<<<<<<<<<<<<<<<<<@######################@@<<<<<<<<<<<<<<<<<<<<",
"<<<<<<<<<<<<<<<<<<<@######################@@<<<<<<<<<<<<<<<<<<<<",
"<<<<<<<<<<<<<<<<<<<<@@###################@<<<<<<<<<<<<<<<<<<<<<<",
"<<<<<<<<<<<<<<<<<<<<<<@*****##@@@****##@@<<<<<<<<<<<<<<<<<<<<<<<",
"<<<<<<<<<<<<<<<<<<<<<<@*****##@@@****##@@<<<<<<<<<<<<<<<<<<<<<<<",
"<<<<<<<<<<<<<<<<<<<<<<@#####@@<<<@#####@@<<<<<<<<<<<<<<<<<<<<<<<",
"<<<<<<<<<<<<<<<<<<<<<<$>>>>:$$<<<$::>>>$$<<<<<<<<<<<<<<<<<<<<<<<",
"<<<<<<<<<<<<<<<<<<<<<<$>>>>:$$<<<$::>>>$$<<<<<<<<<<<<<<<<<<<<<<<",
"<<<<<<<<<<<<<<<<<<<<<<$,,,,,$$<<<$,,,,,$$<<<<<<<<<<<<<<<<<<<<<<<",
"<<<<<<<<<<<<<<<<<<<<<<.&&&&&..<<<.&&&&&..<<<<<<<<<<<<<<<<<<<<<<<",
"<<<<<<<<<<<<<<<<<<<<<<.&&&&&..<<<.&&&&&..<<<<<<<<<<<<<<<<<<<<<<<",
"<<<<<<<<<<<<<<<<<<<<<<........<<<........<<<<<<<<<<<<<<<<<<<<<<<",
"<<<<<<<<<<<<<<<<<<<<<<<.....<<<<<<.....<<<<<<<<<<<<<<<<<<<<<<<<<",
"<<<<<<<<<<<<<<<<<<<<<<<.....<<<<<<.....<<<<<<<<<<<<<<<<<<<<<<<<<"
};
