/* XPM */
static char *result[] = {
/* columns rows colors chars-per-pixel */
"64 64 2 1 ",
"  c #8CCE6C",
". c #C1EC48",
/* pixels */
"                                          ..                    ",
"                                          ..                    ",
"                                                                ",
"                      ..                                        ",
"                      ..                                        ",
"                    ..  ..                               ..     ",
"                    ..  ..                               ..     ",
"                      ..                               ..  ..   ",
"                      ..                               ..  ..   ",
"                                                         ..     ",
"                                                         ..     ",
"                                                                ",
"                                                                ",
"                                                                ",
"                                                                ",
"                                                                ",
"                                          ..                    ",
"                                          ..                    ",
"                                                                ",
"                                                                ",
"                      ..                      ..                ",
"                      ..                      ..                ",
"  ..                ..  ..                  ..  ..              ",
"  ..                ..  ..                  ..  ..              ",
"                      ..                      ..                ",
"                      ..                      ..                ",
"                                                                ",
"                                                                ",
"                                                                ",
"                                                                ",
"                                                                ",
"                  ..                                            ",
"                  ..                                            ",
"                                                                ",
"                                                                ",
"                                                                ",
"                                                                ",
"                                                                ",
"                                                            ..  ",
"                                                            ..  ",
"           ..                             ..              ..  ..",
"           ..                             ..              ..  ..",
"         ..  ..                                             ..  ",
"         ..  ..                                             ..  ",
"           ..                                                   ",
"           ..                                                   ",
"                                                                ",
"                                                                ",
"                                                                ",
"                                                                ",
"                                                                ",
"                                                     ..         ",
"                                                     ..         ",
"                                                                ",
"                                                                ",
"                                 ..                             ",
"                                 ..                             ",
"                               ..  ..                           ",
"                               ..  ..                           ",
"                                 ..                             ",
"         ..                      ..                             ",
"         ..                                                     ",
"                                                                ",
"                                                                "
};
