/* XPM */
static char *result[] = {
/* columns rows colors chars-per-pixel */
"64 64 21 1 ",
"  c #021C16",
". c #240303",
"X c #310B0F",
"o c #083127",
"O c #043529",
"+ c #033D2F",
"@ c #0D3D31",
"# c #550F0F",
"$ c #0F4537",
"% c #034D3C",
"& c #114135",
"* c #145041",
"= c #175948",
"- c #175949",
"; c #1A6552",
": c #16755E",
"> c #206D5A",
", c #832121",
"< c #1D8268",
"1 c #318E68",
"2 c None",
/* pixels */
"22222222222222222222222222222%%%%%%22222222222222222222222222222",
"222222222222222222222222222%%::1<<:%%222222222222222222222222222",
"22222222222222222222222222%<<::<1<:<1%22222222222222222222222222",
"22222222222222222222222%%%<<:1<<<::<<1%%222222222222222222222222",
"22222222222222222222222%%:::1<<:<1::<<:%222222222222222222222222",
"2222222222222222222222%:::::<<::<<1::::%%%2222222222222222222222",
"222222222222222222222%<::1<::::1<<<::<<:<<%222222222222222222222",
"22222222222222222222%<:11<<:::1<:<1::1<<===+22222222222222222222",
"2222222222222222222+;==<<<:<1:<<:<<1::1<==>>+2222222222222222222",
"222222222222222222+;;;=====<<<:1<:<<:=====>>>+222222222222222222",
"22222222222222222+;;;;===>>=<<1<<====>>===;>>;+22222222222222222",
"2222222222222222+>>;;;;>>>>;==<<==;==>>>;;;;>>;+2222222222222222",
"2222222222222222+>>;>>;>>>;>>===>>;;;;>>;;;>>>;+2222222222222222",
"2222222222222222O;;>>>;;;;>>>==;>>>;>>;;;;;>>;;+2222222222222222",
"222222222222222O&;;>>;;;;;>>;;;;;>>>>>;;>>>;;;;;+222222222222222",
"22222222222222O&&;;;;;;;;;;;;;;;;;;>>;;>>>>;;&;;+222222222222222",
"22222222222222O-&;;&&>>;;;;;;>>;>>;;;;;>>>;;;&&&O222222222222222",
"22222222222222O*&&&&>>>;;;;;>>>>>>;;;;;;;;;;;&&&*O22222222222222",
"22222222222222O*&&-&>>&;;;&;>>;>>;;;;;>>;;;;&---*O22222222222222",
"22222222222222O**--&&&;;;;&;;;;;;;>>&&>>>>&&*--**O22222222222222",
"22222222222222O--**&&&;;;&&&;;;;;&>>>&&>>>&****-*O22222222222222",
"22222222222222O---*--&&&&**-&&;;&&&>>&&&&&--***--O22222222222222",
"2222222222222O**----*&&***--&&&&--&&&&*&&&--****-*O2222222222222",
"222222222222O****---**---*--**&&---&&--*---*--**--*O222222222222",
"22222222222O--***----*----*******--**---****---*----O22222222222",
"2222222222O---*****---*---*--*********--*****--*-*---O2222222222",
"2222222222O--*-*****--****---**--***--********--***--O2222222222",
"2222222222 oo*----********--**---**-----**--**--*--*o 2222222222",
"222222222 @@o**---**--********--***---------***-*---oo 222222222",
"222222222 @@o**--**---*****--***--***--*---*******--o@ 222222222",
"22222222 @$$@oo****--**---*---**---****---*****-*ooo@@ 222222222",
"22222222 $$$@oo*--****----**--***--**------**----ooo@@@ 22222222",
"22222222 $$@@@@-----**---******--***---*---*---o-o@@@@@ 22222222",
"2222222 @@@@@@@--*---**********---**--*---**--oooo$@@@@@ 2222222",
"2222222 @@$$@@@oooo--**---*--***--*--**----ooo@$o$$$@@@@ 2222222",
"2222222 @$$$@@$oo@@ooo----o---**--*---oo---o@@@$$@$$@@@@ 2222222",
"2222222 @$$@@$$@@$$@oo---ooo--o---o*--o@oooo@@@@$@@@@@@@ 2222222",
"2222222 @@@@@$$@$$$@$oooo$$@ooo--o@ooo@@ooo$@@@@@@$$@@@@ 2222222",
"2222222 @@@@@@@@$$@$$$ooo$@@oo$ooo@@oo@@$$$$@@@@$@$$$@@@ 2222222",
"2222222 @@@@@@$@@@@$$@@@@@@@@$$oo@@@@@@@$$$@@$$$$@@$$@@@ 2222222",
"2222222 @@@@@@$$@@@@@@@@@@@@@$$@@@$$@@$$@@@@$$$$@@@@@@@@ 2222222",
"22222222 @@@@@@$@@@@@@@@@$$@@@@@@$$$@$$$@@@@$$@@@@@@@@@ 22222222",
"22222222 @$$@@@@@@@$$@@@@$$$@@@@@$$@@$$@@@@@@@@@@@@@$$@ 22222222",
"22222222 $$$@@@$@@$$$@@@@@$$$@$$@@@@@@@@$$$@$$@@@@@@$$$ 22222222",
"22222222 $$@@@$$@@$$@$$@@@$$$@$$$@@@@@@$$$$@$$$@@@$$@$$ 22222222",
"222222222  @@@$@@@@@$$$@@@$$@@@$$@@$$@@$$$@@@$$@@$$$@  222222222",
"2222222222 $$@@@@@@@$$@@@@@@@@@@@@@$$$@@@@@@@@@@$$$@ 22222222222",
"2222222222 $$$@$$@@@@@@$$$@@@@@$$@@@$$@@@@@@@@@@$$  222222222222",
"22222222222 $$@$$@@@@@@$$$$@@@$$$@@@@@@@@@@@@$$@$$ 2222222222222",
"222222222222   $@$$@@@@@@$$@@@$$@@@@@@@@@@@@@$$$  22222222222222",
"222222222222222  $$$@@@@@@@@@@@@@@@@@@@@$$$@@@$$ 222222222222222",
"22222222222222222 $$@@$$$@@@@@@@@@$$@@@@$$$$    2222222222222222",
"222222222222222222   $$$$@@@@@$$@@$$$@@@@@$$ 2222222222222222222",
"22222222222222222222 $$  X.. $$$@@ $$ X     22222222222222222222",
"222222222222222222222  222X# $$ ..#  X22222222222222222222222222",
"22222222222222222222222222X,,  ######X22222222222222222222222222",
"22222222222222222222222222X,,,,,,#,##X22222222222222222222222222",
"22222222222222222222222222X,,,,,,,###X22222222222222222222222222",
"22222222222222222222222XXX#,,,,,,#,###X2222222222222222222222222",
"22222222222222222222222XX#X#,,,,,,####X2222222222222222222222222",
"2222222222222222222222222XXX,##,,#,#XX#X222222222222222222222222",
"22222222222222222222222222X##XXXX,###XXX222222222222222222222222",
"2222222222222222222222222X#XX2222XXXX#X2222222222222222222222222",
"2222222222222222222222222XX2222222222XX2222222222222222222222222"
};
